<svg width="95" height="92" viewBox="0 0 95 92" fill="none" xmlns="http://www.w3.org/2000/svg">
<path fill-rule="evenodd" clip-rule="evenodd" d="M47.1635 0C21.1057 0 0 21.1057 0 47.1635C0 68.0334 13.5006 85.6607 32.2481 91.9099C34.6062 92.3226 35.4905 90.9077 35.4905 89.6696C35.4905 88.5495 35.4316 84.8354 35.4316 80.8854C23.5818 83.0667 20.5161 77.9967 19.5729 75.3437C19.0423 73.9878 16.743 69.802 14.7386 68.6819C13.0879 67.7976 10.7297 65.6162 14.6796 65.5573C18.3938 65.4983 21.0467 68.9766 21.931 70.3915C26.1758 77.525 32.9555 75.5206 35.6674 74.2825C36.0801 71.2169 37.3181 69.1535 38.6741 67.9744C28.1802 66.7953 17.2147 62.7275 17.2147 44.6874C17.2147 39.5584 19.0423 35.3137 22.0489 32.0122C21.5773 30.8331 19.9266 25.9989 22.5206 19.5139C22.5206 19.5139 26.4705 18.2759 35.4905 24.3482C39.2636 23.287 43.2725 22.7564 47.2814 22.7564C51.2903 22.7564 55.2992 23.287 59.0723 24.3482C68.0923 18.2169 72.0423 19.5139 72.0423 19.5139C74.6363 25.9989 72.9855 30.8331 72.5139 32.0122C75.5206 35.3137 77.3482 39.4994 77.3482 44.6874C77.3482 62.7864 66.3237 66.7953 55.8298 67.9744C57.5395 69.4483 59.0133 72.2781 59.0133 76.6997C59.0133 83.0078 58.9544 88.0779 58.9544 89.6696C58.9544 90.9077 59.8387 92.3815 62.1969 91.9099C71.5597 88.7491 79.6956 82.7317 85.4593 74.7048C91.2231 66.6778 94.3245 57.0455 94.327 47.1635C94.327 21.1057 73.2214 0 47.1635 0Z" fill="#374375"/>
</svg>
