<svg width="284" height="300" viewBox="0 0 284 300" fill="none" xmlns="http://www.w3.org/2000/svg">
<path fill-rule="evenodd" clip-rule="evenodd" d="M141.926 4.0719e-06C123.372 -0.0056784 105.304 5.93635 90.3756 16.9539C75.4469 27.9715 64.4431 43.4844 58.9791 61.2157C53.5152 78.9471 53.879 97.9629 60.0171 115.472C66.1551 132.982 77.7443 148.062 93.0834 158.501C66.4614 168.265 43.3707 185.773 26.7828 208.771C10.1949 231.769 0.869033 259.205 0.0053293 287.548C-0.0888116 290.686 1.06748 293.733 3.21984 296.019C5.37219 298.304 8.3443 299.641 11.4823 299.735C14.6204 299.829 17.6673 298.673 19.9528 296.521C22.2382 294.368 23.5751 291.396 23.6693 288.258C24.6087 257.518 37.4805 228.352 59.5568 206.94C81.6331 185.528 111.179 173.553 141.934 173.553C172.688 173.553 202.234 185.528 224.31 206.94C246.387 228.352 259.259 257.518 260.198 288.258C260.21 289.833 260.536 291.391 261.158 292.838C261.78 294.286 262.685 295.594 263.819 296.688C264.954 297.781 266.295 298.637 267.764 299.204C269.234 299.772 270.802 300.041 272.377 299.995C273.952 299.949 275.501 299.588 276.935 298.935C278.369 298.282 279.657 297.349 280.726 296.191C281.794 295.034 282.62 293.674 283.156 292.192C283.692 290.711 283.927 289.137 283.846 287.564C282.986 259.218 273.661 231.779 257.073 208.778C240.485 185.776 217.392 168.266 190.768 158.501C206.107 148.062 217.696 132.982 223.834 115.472C229.973 97.9629 230.336 78.9471 224.872 61.2157C219.408 43.4844 208.405 27.9715 193.476 16.9539C178.547 5.93635 160.48 -0.0056784 141.926 4.0719e-06ZM78.822 86.7677C78.822 70.0315 85.4704 53.9808 97.3046 42.1466C109.139 30.3123 125.19 23.6639 141.926 23.6639C158.662 23.6639 174.713 30.3123 186.547 42.1466C198.381 53.9808 205.03 70.0315 205.03 86.7677C205.03 103.504 198.381 119.555 186.547 131.389C174.713 143.223 158.662 149.871 141.926 149.871C125.19 149.871 109.139 143.223 97.3046 131.389C85.4704 119.555 78.822 103.504 78.822 86.7677Z" fill="#374375" fill-opacity="0.8"/>
</svg>
